<svg xmlns="http://www.w3.org/2000/svg" width="22" height="22" viewBox="0 0 22 22" fill="none">
  <path d="M18.5625 5.5H15.125C15.125 4.40598 14.6904 3.35677 13.9168 2.58318C13.1432 1.8096 12.094 1.375 11 1.375C9.90598 1.375 8.85677 1.8096 8.08318 2.58318C7.3096 3.35677 6.875 4.40598 6.875 5.5H3.4375C3.07283 5.5 2.72309 5.64487 2.46523 5.90273C2.20737 6.16059 2.0625 6.51033 2.0625 6.875V17.1875C2.0625 17.5522 2.20737 17.9019 2.46523 18.1598C2.72309 18.4176 3.07283 18.5625 3.4375 18.5625H18.5625C18.9272 18.5625 19.2769 18.4176 19.5348 18.1598C19.7926 17.9019 19.9375 17.5522 19.9375 17.1875V6.875C19.9375 6.51033 19.7926 6.16059 19.5348 5.90273C19.2769 5.64487 18.9272 5.5 18.5625 5.5ZM11 2.75C11.7293 2.75 12.4288 3.03973 12.9445 3.55546C13.4603 4.07118 13.75 4.77065 13.75 5.5H8.25C8.25 4.77065 8.53973 4.07118 9.05546 3.55546C9.57118 3.03973 10.2707 2.75 11 2.75ZM18.5625 17.1875H3.4375V6.875H6.875V8.25C6.875 8.43234 6.94743 8.6072 7.07636 8.73614C7.2053 8.86507 7.38016 8.9375 7.5625 8.9375C7.74484 8.9375 7.9197 8.86507 8.04864 8.73614C8.17757 8.6072 8.25 8.43234 8.25 8.25V6.875H13.75V8.25C13.75 8.43234 13.8224 8.6072 13.9514 8.73614C14.0803 8.86507 14.2552 8.9375 14.4375 8.9375C14.6198 8.9375 14.7947 8.86507 14.9236 8.73614C15.0526 8.6072 15.125 8.43234 15.125 8.25V6.875H18.5625V17.1875Z" fill="black"/>
</svg>