<svg xmlns="http://www.w3.org/2000/svg" width="22" height="22" viewBox="0 0 22 22" fill="none">
  <path d="M19.7992 7.83311V14.3C19.7992 14.8835 19.5674 15.4431 19.1549 15.8556C18.7423 16.2682 18.1827 16.5 17.5992 16.5H4.39922C3.81574 16.5 3.25616 16.2682 2.84358 15.8556C2.431 15.4431 2.19922 14.8835 2.19922 14.3V7.70001C2.19922 7.11653 2.431 6.55695 2.84358 6.14437C3.25616 5.73179 3.81574 5.50001 4.39922 5.50001H17.4661L16.3661 6.60001H4.39922C4.10748 6.60001 3.82769 6.7159 3.6214 6.92219C3.41511 7.12848 3.29922 7.40827 3.29922 7.70001V14.3C3.29922 14.5917 3.41511 14.8715 3.6214 15.0778C3.82769 15.2841 4.10748 15.4 4.39922 15.4H17.5992C17.891 15.4 18.1707 15.2841 18.377 15.0778C18.5833 14.8715 18.6992 14.5917 18.6992 14.3V8.93311L19.7992 7.83311ZM4.39922 9.35001C4.39922 9.20414 4.45717 9.06424 4.56031 8.9611C4.66346 8.85795 4.80335 8.80001 4.94922 8.80001H7.14922C7.29509 8.80001 7.43498 8.85795 7.53813 8.9611C7.64127 9.06424 7.69922 9.20414 7.69922 9.35001C7.69922 9.49588 7.64127 9.63577 7.53813 9.73892C7.43498 9.84206 7.29509 9.90001 7.14922 9.90001H4.94922C4.80335 9.90001 4.66346 9.84206 4.56031 9.73892C4.45717 9.63577 4.39922 9.49588 4.39922 9.35001ZM4.39922 12.65C4.39922 12.5041 4.45717 12.3642 4.56031 12.2611C4.66346 12.158 4.80335 12.1 4.94922 12.1H9.89922C10.0451 12.1 10.185 12.158 10.2881 12.2611C10.3913 12.3642 10.4492 12.5041 10.4492 12.65C10.4492 12.7959 10.3913 12.9358 10.2881 13.0389C10.185 13.1421 10.0451 13.2 9.89922 13.2H4.94922C4.80335 13.2 4.66346 13.1421 4.56031 13.0389C4.45717 12.9358 4.39922 12.7959 4.39922 12.65ZM19.6386 5.66061C19.6898 5.7117 19.7305 5.77239 19.7582 5.83921C19.7859 5.90603 19.8002 5.97766 19.8002 6.05001C19.8002 6.12235 19.7859 6.19398 19.7582 6.2608C19.7305 6.32762 19.6898 6.38832 19.6386 6.43941L13.0386 13.0394C12.9353 13.1427 12.7953 13.2007 12.6492 13.2007C12.5032 13.2007 12.3631 13.1427 12.2598 13.0394C12.1565 12.9361 12.0985 12.7961 12.0985 12.65C12.0985 12.504 12.1565 12.3639 12.2598 12.2606L18.8598 5.66061C18.9109 5.60939 18.9716 5.56875 19.0384 5.54102C19.1052 5.5133 19.1769 5.49902 19.2492 5.49902C19.3216 5.49902 19.3932 5.5133 19.46 5.54102C19.5268 5.56875 19.5875 5.60939 19.6386 5.66061Z" fill="black"/>
</svg>