<svg width="20" height="12" viewBox="0 0 20 12" fill="none" xmlns="http://www.w3.org/2000/svg">
<path id="Vector" d="M10 9.94915L1.27803 0.24914C1.20774 0.169277 1.12429 0.10614 1.03251 0.0633811C0.940736 0.0206213 0.842448 -0.000911749 0.74334 2.95314e-05C0.644232 0.000969859 0.546272 0.0243664 0.455127 0.0688629C0.363982 0.113358 0.281464 0.178072 0.212346 0.259257C0.143229 0.340443 0.0888844 0.436487 0.0524586 0.541836C0.0160329 0.647183 -0.00175129 0.759744 0.000135337 0.872999C0.00202197 0.986254 0.023542 1.09796 0.0634499 1.20164C0.103358 1.30533 0.160861 1.39894 0.232633 1.47706L9.4773 11.7573C9.61724 11.9129 9.80477 12 10 12C10.1952 12 10.3828 11.9129 10.5227 11.7573L19.7674 1.47706C19.8391 1.39894 19.8966 1.30533 19.9365 1.20164C19.9765 1.09795 19.998 0.986253 19.9999 0.872998C20.0018 0.759743 19.984 0.647183 19.9475 0.541835C19.9111 0.436486 19.8568 0.340442 19.7877 0.259256C19.7185 0.178071 19.636 0.113358 19.5449 0.0688621C19.4537 0.0243655 19.3558 0.000969041 19.2567 2.87222e-05C19.1576 -0.00091255 19.0593 0.0206205 18.9675 0.0633804C18.8757 0.106139 18.7923 0.169276 18.722 0.249139L10 9.94915Z" fill="#212121"/>
</svg>
