<svg xmlns="http://www.w3.org/2000/svg" width="22" height="22" viewBox="0 0 22 22" fill="none">
  <path d="M4.8125 8.25C4.13263 8.25 3.46802 8.0484 2.90273 7.67068C2.33743 7.29296 1.89684 6.7561 1.63667 6.12798C1.37649 5.49985 1.30842 4.80869 1.44105 4.14188C1.57369 3.47507 1.90108 2.86257 2.38182 2.38182C2.86257 1.90108 3.47507 1.57369 4.14188 1.44105C4.80869 1.30842 5.49985 1.37649 6.12798 1.63667C6.7561 1.89684 7.29296 2.33743 7.67068 2.90273C8.0484 3.46802 8.25 4.13263 8.25 4.8125H6.875C6.875 4.40458 6.75404 4.00581 6.52741 3.66664C6.30078 3.32746 5.97866 3.06311 5.60179 2.907C5.22491 2.75089 4.81021 2.71005 4.41013 2.78963C4.01004 2.86921 3.64254 3.06565 3.35409 3.35409C3.06565 3.64254 2.86921 4.01004 2.78963 4.41013C2.71005 4.81021 2.75089 5.22491 2.907 5.60179C3.06311 5.97866 3.32746 6.30078 3.66664 6.52741C4.00581 6.75404 4.40458 6.875 4.8125 6.875V8.25ZM17.1875 8.25V6.875C17.5954 6.875 17.9942 6.75404 18.3334 6.52741C18.6725 6.30078 18.9369 5.97866 19.093 5.60179C19.2491 5.22491 19.29 4.81021 19.2104 4.41013C19.1308 4.01004 18.9344 3.64254 18.6459 3.35409C18.3575 3.06565 17.99 2.86921 17.5899 2.78963C17.1898 2.71005 16.7751 2.75089 16.3982 2.907C16.0213 3.06311 15.6992 3.32746 15.4726 3.66664C15.246 4.00581 15.125 4.40458 15.125 4.8125H13.75C13.75 4.13263 13.9516 3.46802 14.3293 2.90273C14.707 2.33743 15.2439 1.89684 15.872 1.63667C16.5001 1.37649 17.1913 1.30842 17.8581 1.44105C18.5249 1.57369 19.1374 1.90108 19.6182 2.38182C20.0989 2.86257 20.4263 3.47507 20.559 4.14188C20.6916 4.80869 20.6235 5.49985 20.3633 6.12798C20.1032 6.7561 19.6626 7.29296 19.0973 7.67068C18.532 8.0484 17.8674 8.25 17.1875 8.25ZM4.8125 20.625C3.90082 20.625 3.02648 20.2628 2.38182 19.6182C1.73717 18.9735 1.375 18.0992 1.375 17.1875C1.375 16.2758 1.73717 15.4015 2.38182 14.7568C3.02648 14.1122 3.90082 13.75 4.8125 13.75V15.125C4.40458 15.125 4.00581 15.246 3.66664 15.4726C3.32746 15.6992 3.06311 16.0213 2.907 16.3982C2.75089 16.7751 2.71005 17.1898 2.78963 17.5899C2.86921 17.99 3.06565 18.3575 3.35409 18.6459C3.64254 18.9344 4.01004 19.1308 4.41013 19.2104C4.81021 19.29 5.22491 19.2491 5.60179 19.093C5.97866 18.9369 6.30078 18.6725 6.52741 18.3334C6.75404 17.9942 6.875 17.5954 6.875 17.1875H8.25C8.24891 18.0988 7.88639 18.9726 7.24198 19.617C6.59756 20.2614 5.72385 20.6239 4.8125 20.625ZM17.1875 20.625C16.2762 20.6239 15.4024 20.2614 14.758 19.617C14.1136 18.9726 13.7511 18.0988 13.75 17.1875H15.125C15.125 17.5954 15.246 17.9942 15.4726 18.3334C15.6992 18.6725 16.0213 18.9369 16.3982 19.093C16.7751 19.2491 17.1898 19.29 17.5899 19.2104C17.99 19.1308 18.3575 18.9344 18.6459 18.6459C18.9344 18.3575 19.1308 17.99 19.2104 17.5899C19.29 17.1898 19.2491 16.7751 19.093 16.3982C18.9369 16.0213 18.6725 15.6992 18.3334 15.4726C17.9942 15.246 17.5954 15.125 17.1875 15.125V13.75C18.0992 13.75 18.9735 14.1122 19.6182 14.7568C20.2628 15.4015 20.625 16.2758 20.625 17.1875C20.625 18.0992 20.2628 18.9735 19.6182 19.6182C18.9735 20.2628 18.0992 20.625 17.1875 20.625Z" fill="black"/>
  <path d="M13.7499 12.7775V9.22178L17.6734 5.29822C17.7391 5.2348 17.7915 5.15894 17.8275 5.07506C17.8635 4.99118 17.8825 4.90097 17.8833 4.80968C17.8841 4.7184 17.8667 4.62787 17.8321 4.54338C17.7975 4.45889 17.7465 4.38213 17.6819 4.31757C17.6174 4.25302 17.5406 4.20197 17.4561 4.16741C17.3716 4.13284 17.2811 4.11544 17.1898 4.11624C17.0985 4.11703 17.0083 4.136 16.9244 4.17203C16.8406 4.20806 16.7647 4.26043 16.7013 4.3261L13.6075 7.41985C13.4344 6.86355 13.0879 6.37719 12.6187 6.03182C12.1495 5.68644 11.5821 5.50015 10.9995 5.50015C10.4169 5.50015 9.84954 5.68644 9.38032 6.03182C8.91111 6.37719 8.56462 6.86355 8.39148 7.41985L5.29842 4.3261C5.16949 4.19721 4.99465 4.12481 4.81235 4.12481C4.63005 4.12481 4.45522 4.19721 4.32629 4.3261C4.1974 4.45502 4.125 4.62986 4.125 4.81216C4.125 4.99446 4.1974 5.1693 4.32629 5.29822L8.24985 9.22178V12.7775L4.32629 16.7011C4.1974 16.83 4.125 17.0049 4.125 17.1872C4.125 17.3695 4.1974 17.5443 4.32629 17.6732C4.45522 17.8021 4.63005 17.8745 4.81235 17.8745C4.99465 17.8745 5.16949 17.8021 5.29842 17.6732L8.39217 14.5795C8.56531 15.1358 8.9118 15.6221 9.38101 15.9675C9.85022 16.3129 10.4176 16.4992 11.0002 16.4992C11.5828 16.4992 12.1502 16.3129 12.6194 15.9675C13.0886 15.6221 13.4351 15.1358 13.6082 14.5795L16.702 17.6732C16.8316 17.7985 17.0053 17.8678 17.1856 17.8662C17.3658 17.8646 17.5383 17.7923 17.6657 17.6648C17.7932 17.5374 17.8655 17.3649 17.8671 17.1847C17.8686 17.0044 17.7993 16.8308 17.6741 16.7011L13.7499 12.7775ZM12.3749 13.7497C12.3749 14.1143 12.23 14.4641 11.9721 14.7219C11.7143 14.9798 11.3645 15.1247 10.9999 15.1247C10.6352 15.1247 10.2854 14.9798 10.0276 14.7219C9.76972 14.4641 9.62485 14.1143 9.62485 13.7497V8.24966C9.62485 7.88499 9.76972 7.53525 10.0276 7.27739C10.2854 7.01952 10.6352 6.87466 10.9999 6.87466C11.3645 6.87466 11.7143 7.01952 11.9721 7.27739C12.23 7.53525 12.3749 7.88499 12.3749 8.24966V13.7497Z" fill="black"/>
</svg>