<svg width="41" height="41" viewBox="0 0 41 41" fill="none" xmlns="http://www.w3.org/2000/svg">
<g id="Group">
<path id="Vector" d="M34.8889 39H10.2222C8.04155 39 5.9502 38.1337 4.40823 36.5918C2.86627 35.0498 2 32.9584 2 30.7778V6.11111C2 5.02078 2.43313 3.9751 3.20412 3.20412C3.9751 2.43313 5.02078 2 6.11111 2H26.6667C27.757 2 28.8027 2.43313 29.5737 3.20412C30.3446 3.9751 30.7778 5.02078 30.7778 6.11111V32.8333C30.7778 36.2394 31.4828 39 34.8889 39Z" stroke="#FBFBFB" stroke-width="2.70732" stroke-linecap="round" stroke-linejoin="round"/>
<path id="Vector_2" d="M38.9996 16.3885C38.9996 15.2981 38.5664 14.2524 37.7954 13.4815C37.0245 12.7105 35.9788 12.2773 34.8885 12.2773H30.7773V33.8607C30.7773 36.6973 32.0518 38.9996 34.8885 38.9996C37.7251 38.9996 38.9996 36.6973 38.9996 33.8607V16.3885Z" stroke="#FBFBFB" stroke-width="2.70732" stroke-linecap="round" stroke-linejoin="round"/>
<path id="Vector_3" d="M22.556 18.4449H10.2227M22.556 10.2227H10.2227M16.3893 26.6671H10.2227" stroke="#FBFBFB" stroke-width="2.70732" stroke-linecap="round"/>
</g>
</svg>
