<svg width="26" height="26" viewBox="0 0 26 26" fill="none" xmlns="http://www.w3.org/2000/svg">
<g id="More">
<path id="Border" d="M12.9975 25.0904C19.6967 25.0904 25.1282 19.6778 25.1282 13.0001C25.1282 6.32238 19.6967 0.909774 12.9975 0.909774C6.29833 0.909774 0.866806 6.32238 0.866806 13.0001C0.866806 19.6778 6.29833 25.0904 12.9975 25.0904Z" stroke="#5C5C5C" stroke-width="0.266389"/>
<g id="chevron-down">
<path id="Shape" d="M12.9972 14.0533L9.97333 10.5373C9.75022 10.2779 9.38849 10.2779 9.16538 10.5373C8.94227 10.7968 8.94227 11.2174 9.16538 11.4768L12.5932 15.4625C12.8163 15.7219 13.1781 15.7219 13.4012 15.4625L16.829 11.4768C17.0522 11.2174 17.0522 10.7968 16.829 10.5373C16.6059 10.2779 16.2442 10.2779 16.0211 10.5373L12.9972 14.0533Z" fill="#565656"/>
<mask id="mask0_147_1575" style="mask-type:luminance" maskUnits="userSpaceOnUse" x="8" y="10" width="9" height="6">
<path id="Shape_2" d="M12.9972 14.0533L9.97333 10.5373C9.75022 10.2779 9.38849 10.2779 9.16538 10.5373C8.94227 10.7968 8.94227 11.2174 9.16538 11.4768L12.5932 15.4625C12.8163 15.7219 13.1781 15.7219 13.4012 15.4625L16.829 11.4768C17.0522 11.2174 17.0522 10.7968 16.829 10.5373C16.6059 10.2779 16.2442 10.2779 16.0211 10.5373L12.9972 14.0533Z" fill="white"/>
</mask>
<g mask="url(#mask0_147_1575)">
</g>
</g>
</g>
</svg>
