<svg xmlns="http://www.w3.org/2000/svg" width="22" height="22" viewBox="0 0 22 22" fill="none">
  <path d="M16.5 2.75C17.2293 2.75 17.9288 3.03973 18.4445 3.55546C18.9603 4.07118 19.25 4.77065 19.25 5.5V7.46442C19.25 7.77058 19.25 7.92367 19.1794 8.0355C19.1428 8.09365 19.0937 8.14284 19.0355 8.17942C18.9237 8.25 18.7706 8.25 18.4644 8.25H13.75M16.5 2.75C15.7707 2.75 15.0712 3.03973 14.5555 3.55546C14.0397 4.07118 13.75 4.77065 13.75 5.5V8.25M16.5 2.75H6.41667C4.68783 2.75 3.82433 2.75 3.28717 3.28717C2.75 3.82433 2.75 4.68783 2.75 6.41667V19.25L5.5 18.3333L8.25 19.25L11 18.3333L13.75 19.25V8.25" stroke="#202224"/>
  <path d="M6.41602 6.41699H10.0827M7.33268 10.0837H6.41602M6.41602 13.7503H9.16602" stroke="#202224" stroke-linecap="round"/>
</svg>