<svg width="74" height="9" viewBox="0 0 74 9" fill="none" xmlns="http://www.w3.org/2000/svg">
<path id="Union" fill-rule="evenodd" clip-rule="evenodd" d="M65.3639 7.22869C65.1591 7.41387 65.1431 7.73005 65.3283 7.9349C65.5135 8.13975 65.8297 8.1557 66.0345 7.97053L73.3334 1.3726C73.3835 1.32774 73.4245 1.27292 73.4533 1.21126C73.4601 1.19663 73.4662 1.18173 73.4715 1.16662C73.4823 1.1361 73.49 1.10472 73.4947 1.07294C73.4982 1.04879 73.5 1.0244 73.5 1C73.5 0.934619 73.4873 0.869125 73.4616 0.807536C73.4463 0.770887 73.4265 0.735625 73.402 0.702599C73.389 0.685111 73.3749 0.668497 73.3599 0.652864C73.3142 0.605456 73.2612 0.568954 73.2043 0.543527C73.1446 0.516756 73.0787 0.501356 73.0093 0.500086C73.0062 0.500029 73.0031 0.5 73 0.5H72.9978H1C0.723858 0.5 0.5 0.723858 0.5 1C0.5 1.27614 0.723858 1.5 1 1.5H71.7013L65.3639 7.22869Z" fill="#7B7B7B"/>
</svg>
