<svg width="9" height="16" viewBox="0 0 9 16" fill="none" xmlns="http://www.w3.org/2000/svg">
<path d="M7.46186 8L0.186855 14.5415C0.126959 14.5942 0.079606 14.6568 0.0475368 14.7256C0.0154666 14.7944 -0.000682886 14.8682 2.28394e-05 14.9425C0.000728565 15.0168 0.0182762 15.0903 0.0516481 15.1587C0.08502 15.227 0.133554 15.2889 0.194444 15.3407C0.255333 15.3926 0.327367 15.4333 0.406378 15.4607C0.485389 15.488 0.569809 15.5013 0.65475 15.4999C0.739692 15.4985 0.823467 15.4823 0.901233 15.4524C0.978998 15.4225 1.04921 15.3794 1.1078 15.3255L8.818 8.39202C8.9347 8.28707 9 8.14643 9 8C9 7.85357 8.9347 7.71293 8.818 7.60798L1.10779 0.674473C1.0492 0.620644 0.978997 0.577518 0.901231 0.547587C0.823466 0.517656 0.73969 0.501516 0.654749 0.500101C0.569808 0.498687 0.485387 0.512024 0.406376 0.539343C0.327366 0.566663 0.255332 0.60742 0.194442 0.659259C0.133553 0.711097 0.0850188 0.772987 0.0516469 0.841346C0.0182749 0.909704 0.000727338 0.983173 2.16256e-05 1.0575C-0.000684087 1.13183 0.0154654 1.20555 0.0475356 1.27439C0.0796048 1.34322 0.126958 1.40581 0.186854 1.45852L7.46186 8Z" fill="#212121"/>
</svg>
