<svg width="20" height="12" viewBox="0 0 20 12" fill="none" xmlns="http://www.w3.org/2000/svg">
<path id="Vector" d="M10 2.05085L18.722 11.7509C18.7923 11.8307 18.8757 11.8939 18.9675 11.9366C19.0593 11.9794 19.1576 12.0009 19.2567 12C19.3558 11.999 19.4537 11.9756 19.5449 11.9311C19.636 11.8866 19.7185 11.8219 19.7877 11.7407C19.8568 11.6596 19.9111 11.5635 19.9475 11.4582C19.984 11.3528 20.0018 11.2403 19.9999 11.127C19.998 11.0137 19.9765 10.902 19.9365 10.7984C19.8966 10.6947 19.8391 10.6011 19.7674 10.5229L10.5227 0.24266C10.3828 0.0870596 10.1952 -4.2858e-07 10 -4.37114e-07C9.80477 -4.45648e-07 9.61724 0.0870596 9.4773 0.24266L0.232631 10.5229C0.16086 10.6011 0.103357 10.6947 0.0634494 10.7984C0.0235419 10.902 0.00202131 11.0137 0.000134935 11.127C-0.00175144 11.2403 0.0160308 11.3528 0.0524573 11.4582C0.0888838 11.5635 0.143226 11.6596 0.212345 11.7407C0.281463 11.8219 0.363983 11.8866 0.455127 11.9311C0.546272 11.9756 0.644231 11.999 0.743339 12C0.842447 12.0009 0.940734 11.9794 1.03251 11.9366C1.12429 11.8939 1.20774 11.8307 1.27803 11.7509L10 2.05085Z" fill="#212121"/>
</svg>
